<?xml version="1.0" standalone="no"?>
<!DOCTYPE svg PUBLIC "-//W3C//DTD SVG 20010904//EN"
 "http://www.w3.org/TR/2001/REC-SVG-20010904/DTD/svg10.dtd">
<svg version="1.0" xmlns="http://www.w3.org/2000/svg"
 width="1024.000000pt" height="1024.000000pt" viewBox="0 0 1024.000000 1024.000000"
 preserveAspectRatio="xMidYMid meet">
<metadata>
Created by potrace 1.14, written by Peter Selinger 2001-2017
</metadata>
<g transform="translate(0.000000,1024.000000) scale(0.100000,-0.100000)"
fill="#000000" stroke="none">
<path d="M2779 6916 c-2 -2 -35 -6 -73 -10 -37 -3 -87 -11 -110 -16 -22 -5
-53 -11 -68 -14 -53 -9 -184 -48 -248 -73 -179 -70 -311 -146 -495 -285 -40
-31 -235 -225 -263 -263 -13 -16 -41 -55 -63 -85 -167 -224 -295 -552 -326
-832 -10 -90 -10 -340 -1 -428 18 -173 83 -396 161 -559 57 -120 146 -266 192
-317 6 -6 24 -29 40 -50 52 -66 137 -155 211 -218 93 -80 107 -91 141 -113 15
-9 30 -20 33 -23 3 -4 39 -27 81 -52 105 -64 234 -123 342 -158 142 -47 149
-49 237 -65 14 -3 36 -7 50 -10 94 -20 406 -27 520 -12 51 7 70 10 133 21 278
50 604 212 833 414 296 261 516 640 578 997 3 17 11 55 17 85 6 30 12 134 14
230 3 154 0 209 -20 335 -7 48 -35 177 -40 184 -2 4 -6 18 -9 32 -3 13 -18 60
-34 104 -149 410 -450 757 -842 972 -73 41 -230 106 -305 128 -33 9 -71 21
-85 26 -79 27 -306 56 -456 57 -78 1 -143 0 -145 -2z"/>
<path d="M7168 6915 c-2 -1 -30 -5 -63 -9 -451 -47 -892 -292 -1189 -662 -31
-38 -60 -74 -66 -81 -5 -7 -10 -16 -10 -21 0 -5 -7 -15 -15 -22 -14 -12 -104
-170 -139 -245 -37 -78 -67 -161 -95 -260 -33 -113 -39 -143 -60 -295 -12 -82
-6 -386 8 -465 6 -33 14 -76 17 -95 6 -45 28 -123 66 -235 91 -268 272 -542
490 -738 41 -38 86 -76 99 -85 13 -9 26 -19 29 -22 14 -18 168 -114 251 -157
196 -101 406 -167 614 -191 80 -9 366 -9 435 1 257 35 494 116 698 239 475
286 786 755 867 1308 11 74 13 370 4 440 -5 36 -12 83 -15 105 -3 22 -7 48
-10 57 -3 9 -6 25 -8 35 -20 101 -81 275 -140 393 -44 90 -156 275 -175 290
-3 3 -32 37 -63 75 -148 183 -348 341 -575 454 -261 131 -508 188 -809 189
-78 0 -144 -1 -146 -3z"/>
</g>
</svg>
